<svg width="43" height="42" xmlns="http://www.w3.org/2000/svg" xmlns:xlink="http://www.w3.org/1999/xlink" xml:space="preserve" overflow="hidden"><defs><clipPath id="clip0"><rect x="23" y="171" width="42" height="41"/></clipPath><clipPath id="clip1"><rect x="23" y="171" width="42" height="41"/></clipPath><clipPath id="clip2"><rect x="23" y="171" width="42" height="41"/></clipPath></defs><g transform="translate(-22 -170)"><g><g clip-path="url(#clip0)"><g clip-path="url(#clip1)"><g clip-path="url(#clip2)"><path d="M41 20.5C41 31.8218 31.8218 41 20.5 41 9.17816 41-4.58211e-07 31.8218-4.58211e-07 20.5-4.58211e-07 9.17816 9.17816-4.58211e-07 20.5-4.58211e-07 31.8218-4.58211e-07 41 9.17816 41 20.5Z" fill="#334D5C" fill-rule="nonzero" fill-opacity="1" transform="matrix(1.02439 0 0 1 23 171)"/><path d="M40.2491 25.9947 24.9929 10.7411 24.8049 10.549C23.7074 9.4428 22.1869 8.75521 20.4999 8.75521 17.1473 8.75521 14.4311 11.4714 14.4311 14.824 14.4311 16.9424 15.5159 18.8044 17.1559 19.8892L16.1865 21.8325C15.5586 21.5805 14.8753 21.4352 14.1578 21.4352 11.1767 21.4352 8.75521 23.8568 8.75521 26.8421 8.75521 28.1405 9.21649 29.3363 9.9809 30.2674L9.9895 30.276C10.2115 30.545 10.455 30.7885 10.724 31.0105L20.7083 40.9947C30.0341 40.9015 37.8645 34.5829 40.2491 25.9947Z" fill="#000000" fill-rule="nonzero" fill-opacity="0.1" transform="matrix(1.02439 0 0 1 23 171)"/><path d="M26.4587 27.0315 20.5 15.1142 14.5413 27.0315 13.7772 26.6495 20.5 13.2045 27.2228 26.6495Z" fill="#64798A" fill-rule="nonzero" fill-opacity="1" transform="matrix(1.02439 0 0 1 23 171)"/><path d="M26.5701 14.8253C26.5701 18.1777 23.8524 20.8954 20.5 20.8954 17.1476 20.8954 14.4299 18.1777 14.4299 14.8253 14.4299 11.4729 17.1476 8.75521 20.5 8.75521 23.8524 8.75521 26.5701 11.4729 26.5701 14.8253Z" fill="#F6C358" fill-rule="nonzero" fill-opacity="1" transform="matrix(1.02439 0 0 1 23 171)"/><path d="M25.5574 14.8253C25.5574 17.6184 23.2931 19.8827 20.5 19.8827 17.7069 19.8827 15.4426 17.6184 15.4426 14.8253 15.4426 12.0322 17.7069 9.76786 20.5 9.76786 23.2931 9.76786 25.5574 12.0322 25.5574 14.8253Z" fill="#FCD462" fill-rule="nonzero" fill-opacity="1" transform="matrix(1.02439 0 0 1 23 171)"/><path d="M20.5 19.8825C22.3231 19.8825 23.916 18.9146 24.8059 17.4679 23.8954 16.0526 22.3079 15.1142 20.5 15.1142 18.6921 15.1142 17.1046 16.0526 16.1941 17.4679 17.0839 18.9146 18.6769 19.8825 20.5 19.8825Z" fill="#DC8744" fill-rule="nonzero" fill-opacity="1" transform="matrix(1.02439 0 0 1 23 171)"/><path d="M22.0974 12.2511C22.0974 13.1333 21.3822 13.8485 20.5 13.8485 19.6178 13.8485 18.9026 13.1333 18.9026 12.2511 18.9026 11.3689 19.6178 10.6537 20.5 10.6537 21.3822 10.6537 22.0974 11.3689 22.0974 12.2511Z" fill="#DC8744" fill-rule="nonzero" fill-opacity="1" transform="matrix(1.02439 0 0 1 23 171)"/><path d="M32.2446 26.8404C32.2446 29.825 29.8251 32.2446 26.8404 32.2446 23.8557 32.2446 21.4361 29.825 21.4361 26.8404 21.4361 23.8557 23.8557 21.4361 26.8404 21.4361 29.8251 21.4361 32.2446 23.8557 32.2446 26.8404Z" fill="#3EA69B" fill-rule="nonzero" fill-opacity="1" transform="matrix(1.02439 0 0 1 23 171)"/><path d="M31.3431 26.8404C31.3431 29.3271 29.3271 31.3431 26.8404 31.3431 24.3536 31.3431 22.3376 29.3271 22.3376 26.8404 22.3376 24.3536 24.3536 22.3376 26.8404 22.3376 29.3271 22.3376 31.3431 24.3536 31.3431 26.8404Z" fill="#44C4A1" fill-rule="nonzero" fill-opacity="1" transform="matrix(1.02439 0 0 1 23 171)"/><path d="M26.8405 31.3431C28.4637 31.3431 29.8819 30.4813 30.6742 29.1933 29.8636 27.9333 28.4502 27.0979 26.8405 27.0979 25.2309 27.0979 23.8175 27.9333 23.0069 29.1933 23.7991 30.4814 25.2174 31.3431 26.8405 31.3431Z" fill="#31978C" fill-rule="nonzero" fill-opacity="1" transform="matrix(1.02439 0 0 1 23 171)"/><path d="M28.2626 24.5489C28.2626 25.3344 27.6258 25.9712 26.8404 25.9712 26.0549 25.9712 25.4181 25.3344 25.4181 24.5489 25.4181 23.7635 26.0549 23.1267 26.8404 23.1267 27.6258 23.1267 28.2626 23.7635 28.2626 24.5489Z" fill="#31978C" fill-rule="nonzero" fill-opacity="1" transform="matrix(1.02439 0 0 1 23 171)"/><path d="M19.5623 26.8404C19.5623 29.825 17.1427 32.2446 14.158 32.2446 11.1733 32.2446 8.75371 29.825 8.75371 26.8404 8.75371 23.8557 11.1733 21.4361 14.158 21.4361 17.1427 21.4361 19.5623 23.8557 19.5623 26.8404Z" fill="#2D93BA" fill-rule="nonzero" fill-opacity="1" transform="matrix(1.02439 0 0 1 23 171)"/><path d="M18.6607 26.8404C18.6607 29.3271 16.6448 31.3431 14.158 31.3431 11.6712 31.3431 9.65525 29.3271 9.65525 26.8404 9.65525 24.3536 11.6712 22.3376 14.158 22.3376 16.6448 22.3376 18.6607 24.3536 18.6607 26.8404Z" fill="#27A2DB" fill-rule="nonzero" fill-opacity="1" transform="matrix(1.02439 0 0 1 23 171)"/><path d="M14.1594 31.3431C15.7826 31.3431 17.2008 30.4813 17.9931 29.1933 17.1824 27.9333 15.7691 27.0979 14.1594 27.0979 12.5497 27.0979 11.1364 27.9333 10.3257 29.1933 11.118 30.4814 12.5363 31.3431 14.1594 31.3431Z" fill="#1C75A1" fill-rule="nonzero" fill-opacity="1" transform="matrix(1.02439 0 0 1 23 171)"/><path d="M15.5802 24.5489C15.5802 25.3344 14.9434 25.9712 14.158 25.9712 13.3725 25.9712 12.7358 25.3344 12.7358 24.5489 12.7358 23.7635 13.3725 23.1267 14.158 23.1267 14.9434 23.1267 15.5802 23.7635 15.5802 24.5489Z" fill="#1C75A1" fill-rule="nonzero" fill-opacity="1" transform="matrix(1.02439 0 0 1 23 171)"/></g></g></g></g></g></svg>