<svg width="43" height="44" xmlns="http://www.w3.org/2000/svg" xmlns:xlink="http://www.w3.org/1999/xlink" xml:space="preserve" overflow="hidden"><g transform="translate(-22 -220)"><g><g><g><g><path d="M65 242C65 253.598 55.598 263 44 263 32.402 263 23 253.598 23 242 23 230.402 32.402 221 44 221 55.598 221 65 230.402 65 242Z" fill="#E05B49" fill-rule="nonzero" fill-opacity="1"/><path d="M63.2955 250.294 55.7127 242.711C55.7098 242.708 55.7069 242.705 55.7039 242.702L55.6977 242.696 55.696 242.697C55.6442 242.651 55.5771 242.62 55.5019 242.62L52.3387 242.62C52.3354 242.62 52.3326 242.622 52.3292 242.622L44.4666 234.759 44.4648 234.766C43.9698 234.225 43.4136 233.914 42.8231 233.914L37.4506 233.914C36.5493 233.914 35.7225 234.623 35.0837 235.799L34.7993 235.799C33.2375 235.799 31.9688 238.573 31.9688 241.999 31.9688 244.103 32.4456 245.963 33.1806 247.083L33.15 247.083 33.15 249.664C33.15 249.771 33.1932 249.867 33.259 249.942L33.2575 249.944 33.266 249.952C33.272 249.959 33.2779 249.965 33.2842 249.971L46.1986 262.885C53.8959 262.084 60.3552 257.125 63.2955 250.294Z" fill="#000000" fill-rule="nonzero" fill-opacity="0.1"/><path d="M40.3053 247.898 34.9341 247.898C34.9837 248 35.0308 248.106 35.0827 248.202 35.7237 249.377 36.5494 250.086 37.4509 250.086L42.8249 250.086C41.8497 250.086 40.9653 249.251 40.3053 247.898Z" fill="#3A556A" fill-rule="nonzero" fill-opacity="1"/><path d="M55.794 243.746 55.575 243.746 55.575 242.914C55.575 242.873 55.5414 242.839 55.5 242.839L52.3389 242.839C52.2975 242.839 52.264 242.873 52.264 242.914L52.264 243.746 52.045 243.746 52.045 242.914C52.045 242.752 52.1768 242.62 52.3389 242.62L55.5 242.62C55.6621 242.62 55.794 242.752 55.794 242.914L55.794 243.746Z" fill="#64798A" fill-rule="nonzero" fill-opacity="1"/><path d="M55.4064 244.895 45.2153 244.895 45.2153 243.416 56.0312 243.416Z" fill="#D5D6DB" fill-rule="nonzero" fill-opacity="1"/><path d="M46.5148 242C46.5148 246.466 44.862 250.086 42.8231 250.086 40.7843 250.086 39.1314 246.466 39.1314 242 39.1314 237.534 40.7843 233.914 42.8231 233.914 44.862 233.914 46.5148 237.534 46.5148 242Z" fill="#64798A" fill-rule="nonzero" fill-opacity="1"/><path d="M45.2136 242C45.2136 245.191 44.1434 247.779 42.8231 247.779 41.5029 247.779 40.4326 245.191 40.4326 242 40.4326 238.809 41.5029 236.221 42.8231 236.221 44.1434 236.221 45.2136 238.809 45.2136 242Z" fill="#3A556A" fill-rule="nonzero" fill-opacity="1"/><path d="M44.7861 242C44.7861 244.762 43.9073 247.002 42.8231 247.002 41.739 247.002 40.8601 244.762 40.8601 242 40.8601 239.238 41.739 236.998 42.8231 236.998 43.9073 236.998 44.7861 239.238 44.7861 242Z" fill="#FFFFFF" fill-rule="nonzero" fill-opacity="1"/><path d="M35.0828 235.798 34.8 235.798C33.2364 235.798 31.9688 238.575 31.9688 242 31.9688 245.425 33.2363 248.202 34.8 248.202L35.0828 248.202C34.2741 246.718 33.7594 244.491 33.7594 242 33.7594 239.509 34.274 237.282 35.0828 235.798Z" fill="#E1E6E9" fill-rule="nonzero" fill-opacity="1"/><path d="M51.911 243.416 40.9423 243.416C41.0043 243.952 41.1006 244.451 41.2248 244.895L51.286 244.895 51.911 243.416Z" fill="#EBF0F3" fill-rule="nonzero" fill-opacity="1"/><path d="M55.4922 243.416C55.4922 243.694 54.7919 243.919 53.9282 243.919 53.0645 243.919 52.3642 243.694 52.3642 243.416" fill="#64798A" fill-rule="nonzero" fill-opacity="1"/><path d="M46.2706 244.895 54.9148 244.895 54.9148 249.14 46.2706 249.14Z" fill="#64798A" fill-rule="nonzero" fill-opacity="1"/><path d="M45.7719 249.14 55.4188 249.14 55.4188 249.573 45.7719 249.573Z" fill="#2F4859" fill-rule="nonzero" fill-opacity="1"/><path d="M35.1774 250.086 33.5714 250.086C33.3389 250.086 33.1504 249.898 33.1504 249.665L33.1504 247.084 35.1773 247.084 35.1773 250.086Z" fill="#3A556A" fill-rule="nonzero" fill-opacity="1"/><path d="M49.1916 249.573C49.1916 249.856 48.9616 250.086 48.678 250.086 48.3944 250.086 48.1645 249.856 48.1645 249.573" fill="#3A556A" fill-rule="nonzero" fill-opacity="1"/><path d="M47.7762 249.573C47.7762 249.856 47.5462 250.086 47.2626 250.086 46.9789 250.086 46.7491 249.856 46.7491 249.573" fill="#64798A" fill-rule="nonzero" fill-opacity="1"/><path d="M54.7123 249.573C54.7123 249.856 54.4824 250.086 54.1988 250.086 53.9152 250.086 53.6852 249.856 53.6852 249.573" fill="#3A556A" fill-rule="nonzero" fill-opacity="1"/><path d="M53.2969 249.573C53.2969 249.856 53.0669 250.086 52.7833 250.086 52.4997 250.086 52.2698 249.856 52.2698 249.573" fill="#64798A" fill-rule="nonzero" fill-opacity="1"/><path d="M39.8788 250.086 34.9038 250.086 34.9038 247.898 40.2998 247.898 40.2998 249.665C40.2998 249.898 40.1113 250.086 39.8788 250.086Z" fill="#64798A" fill-rule="nonzero" fill-opacity="1"/><path d="M39.1334 242C39.1334 237.534 40.7861 233.914 42.8249 233.914L37.4509 233.914C36.5494 233.914 35.7237 234.623 35.0828 235.798 34.274 237.282 33.7593 239.509 33.7593 242 33.7593 244.331 34.2135 246.423 34.9341 247.898L40.3053 247.898C39.5857 246.423 39.1334 244.329 39.1334 242Z" fill="#EBF0F3" fill-rule="nonzero" fill-opacity="1"/></g></g></g></g></g></svg>