<svg width="43" height="43" xmlns="http://www.w3.org/2000/svg" xmlns:xlink="http://www.w3.org/1999/xlink" xml:space="preserve" overflow="hidden"><g transform="translate(-22 -378)"><g><g><g><g><path d="M63.2 400C63.2 410.604 54.6039 419.2 44 419.2 33.3961 419.2 24.8 410.604 24.8 400 24.8 389.396 33.3961 380.8 44 380.8 54.6039 380.8 63.2 389.396 63.2 400Z" fill="#4DA0DC" fill-rule="nonzero" fill-opacity="1"/><path d="M45.9818 387.538 45.8828 387.655 44.7788 386.551 44.7758 386.551C44.7458 386.521 44.7098 386.497 44.6678 386.482 44.5028 386.422 44.3228 386.509 44.2628 386.671L44.0168 387.352 42.9008 386.239 42.9008 386.241C42.8438 386.176 42.7628 386.131 42.6668 386.131 42.4928 386.131 42.3518 386.272 42.3518 386.446L42.3518 387.913 41.0078 386.569C41.0048 386.566 41.0018 386.563 40.9988 386.56L40.9898 386.551C40.9298 386.497 40.8518 386.464 40.7708 386.464 40.7348 386.464 40.7018 386.47 40.6658 386.482 40.5038 386.542 40.4168 386.725 40.4768 386.886L40.9928 388.306C41.0138 388.363 41.0528 388.405 41.0978 388.441L41.0948 388.444 42.1088 389.458C41.8928 389.506 41.6858 389.581 41.4938 389.683L39.3698 387.559 39.3518 387.538C39.3458 387.532 39.3398 387.529 39.3338 387.522L39.2978 387.486 39.3008 387.499C39.1868 387.406 39.0218 387.403 38.9078 387.499 38.7758 387.61 38.7578 387.81 38.8688 387.943L39.8378 389.098 40.8728 390.133C40.6868 390.313 40.5338 390.52 40.4108 390.751L39.4058 389.746 39.4058 389.752C39.3848 389.731 39.3668 389.707 39.3398 389.691L38.0318 388.939C37.8818 388.852 37.6898 388.903 37.6028 389.053 37.5278 389.182 37.5608 389.341 37.6658 389.44L37.6538 389.436 40.1138 391.897C40.1138 391.915 40.1108 391.933 40.1108 391.951 40.1108 392.056 40.1198 392.16 40.1318 392.263L38.9468 391.078 38.9438 391.081C38.8958 391.027 38.8328 390.982 38.7578 390.97L37.2728 390.706C37.1018 390.676 36.9368 390.793 36.9068 390.964 36.8918 391.057 36.9188 391.144 36.9758 391.213L36.9728 391.213 38.2028 392.443 37.1648 392.629C36.9908 392.659 36.8768 392.823 36.9068 392.995 36.9188 393.06 36.9548 393.115 36.9998 393.16L36.9938 393.163 37.8668 394.035 37.7678 394.441 37.7168 394.471C37.5668 394.558 37.5158 394.753 37.6028 394.903 37.6148 394.921 37.6298 394.933 37.6448 394.947L37.6418 394.957 38.8088 396.124C38.7758 396.241 38.8088 396.372 38.9078 396.457L41.1728 398.722 41.0948 400.126 40.2518 399.285C40.0838 399.109 39.8738 399.031 39.6728 399.007 39.6188 399.001 39.5678 398.997 39.5168 398.997 39.2108 398.997 38.9588 399.097 38.9588 399.097 38.9618 399.127 38.9648 399.169 38.9648 399.22 38.9648 399.25 38.9678 399.283 38.9648 399.322 38.9648 399.751 38.9168 400.588 38.8778 401.206 38.8628 401.422 38.8478 401.614 38.8388 401.749 38.8298 401.886 38.8238 401.968 38.8238 401.968 38.5478 402.544 38.4218 404.02 38.3678 405.411 38.2928 407.275 38.7038 409.122 39.5498 410.784 40.1288 411.925 40.7708 413.178 41.1368 413.871L46.3207 419.055C54.542 418.064 61.1651 411.883 62.8076 403.88L46.4258 387.499C46.2938 387.388 46.0928 387.403 45.9818 387.538Z" fill="#000000" fill-rule="nonzero" fill-opacity="0.1"/><path d="M45.2219 391.95C45.2219 393.361 44.0778 394.505 42.6665 394.505 41.2552 394.505 40.1111 393.361 40.1111 391.95 40.1111 390.538 41.2552 389.394 42.6665 389.394 44.0778 389.394 45.2219 390.538 45.2219 391.95Z" fill="#467082" fill-rule="nonzero" fill-opacity="1"/><path d="M41.137 413.871 49.7038 413.871C49.7677 413.22 49.8878 412.576 50.0546 411.943 50.5634 410.013 50.8435 406.542 50.8435 406.542L51.095 402.259C51.1122 401.966 51.042 401.669 50.8715 401.43 50.3839 400.744 49.5431 401.024 49.5431 401.024 49.0939 398.469 47.3008 399.679 47.3008 399.679 47.3008 399.679 46.9713 397.634 45.7499 397.796 44.1363 398.009 44.3406 401.295 44.3406 401.295 43.9823 402.236 43.8466 400.666 43.8466 400.666 43.8466 400.666 43.5515 395.016 43.5779 393.132 43.6119 390.703 42.793 390.84 42.793 390.84 41.3572 390.734 41.47 393.356 41.47 393.356L40.8876 403.85 40.6624 403.358C41.022 402.326 40.5281 399.814 40.5281 399.814 40.3779 399.235 40.0135 399.046 39.6733 399.006 39.3016 398.963 38.959 399.097 38.959 399.097 38.988 399.354 38.925 400.446 38.8766 401.206 38.8488 401.641 38.8246 401.966 38.8246 401.966 38.5472 402.542 38.422 404.019 38.3668 405.411 38.293 407.273 38.7043 409.123 39.5497 410.784 40.1297 411.924 40.7718 413.179 41.137 413.871Z" fill="#FED35B" fill-rule="nonzero" fill-opacity="1"/><path d="M43.2225 392.593 42.1107 392.593 42.1107 391.754C42.1107 391.507 42.3109 391.306 42.558 391.306L42.7751 391.306C43.0222 391.306 43.2225 391.507 43.2225 391.754L43.2225 392.593Z" fill="#EDEDED" fill-rule="nonzero" fill-opacity="1"/><path d="M38.8766 401.206C38.925 400.446 38.988 399.354 38.959 399.097 38.959 399.097 39.3016 398.963 39.6733 399.006 39.7726 399.545 39.8113 400.569 38.8766 401.206Z" fill="#EDEDED" fill-rule="nonzero" fill-opacity="1"/><path d="M42.6666 386.129C42.4929 386.129 42.3509 386.271 42.3509 386.445L42.3509 387.954C42.3509 388.127 42.4929 388.27 42.6666 388.27 42.8402 388.27 42.9823 388.127 42.9823 387.954L42.9823 386.445C42.9823 386.271 42.8402 386.129 42.6666 386.129Z" fill="#EDEDED" fill-rule="nonzero" fill-opacity="1"/><path d="M40.6664 386.482C40.5032 386.542 40.4183 386.724 40.4777 386.887L40.9937 388.304C41.0531 388.468 41.2352 388.553 41.3983 388.493 41.5615 388.434 41.6464 388.252 41.587 388.089L41.071 386.671C41.0116 386.508 40.8295 386.423 40.6664 386.482Z" fill="#EDEDED" fill-rule="nonzero" fill-opacity="1"/><path d="M38.9074 387.498C38.7744 387.609 38.7569 387.809 38.8686 387.942L39.8383 389.098C39.9499 389.231 40.15 389.249 40.2831 389.137 40.416 389.025 40.4335 388.825 40.3219 388.692L39.3522 387.537C39.2406 387.404 39.0404 387.386 38.9074 387.498Z" fill="#EDEDED" fill-rule="nonzero" fill-opacity="1"/><path d="M45.0501 394.818C44.9171 394.93 44.8996 395.13 45.0112 395.263L45.981 396.419C46.0925 396.552 46.2927 396.569 46.4257 396.458 46.5587 396.346 46.5762 396.146 46.4646 396.013L45.4949 394.857C45.3832 394.724 45.1831 394.707 45.0501 394.818Z" fill="#EDEDED" fill-rule="nonzero" fill-opacity="1"/><path d="M37.6019 389.054C37.5151 389.204 37.5671 389.398 37.7175 389.485L39.024 390.239C39.1743 390.326 39.3684 390.274 39.4552 390.124 39.5421 389.973 39.49 389.779 39.3397 389.692L38.0331 388.938C37.8828 388.851 37.6887 388.903 37.6019 389.054Z" fill="#EDEDED" fill-rule="nonzero" fill-opacity="1"/><path d="M45.8779 393.832C45.7911 393.982 45.8431 394.176 45.9935 394.263L47.3 395.017C47.4503 395.104 47.6444 395.052 47.7313 394.902 47.8181 394.751 47.766 394.557 47.6157 394.47L46.3092 393.716C46.1587 393.629 45.9647 393.681 45.8779 393.832Z" fill="#EDEDED" fill-rule="nonzero" fill-opacity="1"/><path d="M36.9072 390.962C36.8771 391.133 36.9923 391.298 37.1633 391.328L38.6491 391.59C38.82 391.62 38.9846 391.505 39.0148 391.334 39.0449 391.163 38.9296 390.998 38.7587 390.968L37.273 390.706C37.102 390.676 36.9374 390.791 36.9072 390.962Z" fill="#EDEDED" fill-rule="nonzero" fill-opacity="1"/><path d="M46.3184 392.622C46.2882 392.793 46.4034 392.957 46.5745 392.987L48.0602 393.249C48.2311 393.279 48.3957 393.164 48.4259 392.993 48.4561 392.822 48.3408 392.658 48.1698 392.627L46.6841 392.365C46.5131 392.335 46.3485 392.451 46.3184 392.622Z" fill="#EDEDED" fill-rule="nonzero" fill-opacity="1"/><path d="M36.9072 392.993C36.9374 393.164 37.102 393.279 37.273 393.249L38.7587 392.987C38.9296 392.957 39.045 392.793 39.0148 392.622 38.9846 392.451 38.82 392.335 38.6491 392.365L37.1633 392.627C36.9923 392.658 36.8771 392.822 36.9072 392.993Z" fill="#EDEDED" fill-rule="nonzero" fill-opacity="1"/><path d="M46.3184 391.334C46.3485 391.505 46.5131 391.62 46.6841 391.59L48.1698 391.328C48.3408 391.298 48.4561 391.133 48.4259 390.962 48.3957 390.791 48.2311 390.676 48.0602 390.706L46.5745 390.968C46.4034 390.998 46.2882 391.163 46.3184 391.334Z" fill="#EDEDED" fill-rule="nonzero" fill-opacity="1"/><path d="M37.6019 394.902C37.6887 395.052 37.8828 395.104 38.0331 395.017L39.3397 394.263C39.49 394.176 39.5421 393.982 39.4552 393.832 39.3685 393.681 39.1743 393.629 39.024 393.716L37.7175 394.47C37.5671 394.557 37.5151 394.751 37.6019 394.902Z" fill="#EDEDED" fill-rule="nonzero" fill-opacity="1"/><path d="M45.8779 390.124C45.9647 390.274 46.1587 390.326 46.3092 390.239L47.6157 389.485C47.766 389.398 47.8181 389.204 47.7313 389.054 47.6444 388.903 47.4503 388.851 47.3 388.938L45.9935 389.692C45.8431 389.779 45.7911 389.973 45.8779 390.124Z" fill="#EDEDED" fill-rule="nonzero" fill-opacity="1"/><path d="M38.9074 396.458C39.0405 396.569 39.2406 396.552 39.3522 396.419L40.3219 395.263C40.4335 395.13 40.4161 394.93 40.2831 394.818 40.15 394.707 39.9499 394.724 39.8383 394.857L38.8686 396.013C38.7569 396.146 38.7745 396.346 38.9074 396.458Z" fill="#EDEDED" fill-rule="nonzero" fill-opacity="1"/><path d="M45.0501 389.137C45.1831 389.249 45.3832 389.231 45.4949 389.098L46.4646 387.942C46.5762 387.809 46.5587 387.609 46.4257 387.498 46.2927 387.386 46.0925 387.404 45.981 387.537L45.0112 388.692C44.8996 388.825 44.9171 389.025 45.0501 389.137Z" fill="#EDEDED" fill-rule="nonzero" fill-opacity="1"/><path d="M43.9348 388.493C44.098 388.553 44.2801 388.468 44.3395 388.304L44.8554 386.887C44.9148 386.724 44.83 386.542 44.6668 386.482 44.5036 386.423 44.3215 386.508 44.2622 386.671L43.7462 388.089C43.6868 388.252 43.7717 388.434 43.9348 388.493Z" fill="#EDEDED" fill-rule="nonzero" fill-opacity="1"/></g></g></g></g></g></svg>