<svg width="43" height="44" xmlns="http://www.w3.org/2000/svg" xmlns:xlink="http://www.w3.org/1999/xlink" xml:space="preserve" overflow="hidden"><g transform="translate(-22 -272)"><g><g><g><g><path d="M65 294C65 305.598 55.598 315 44 315 32.402 315 23 305.598 23 294 23 282.402 32.402 273 44 273 55.598 273 65 282.402 65 294Z" fill="#45B39C" fill-rule="nonzero" fill-opacity="1"/><path d="M48.8356 284.023C47.6024 282.756 45.8907 281.969 44 281.969 40.255 281.969 37.2056 285.053 37.2056 288.846L37.2056 291.2C36.3613 291.406 35.7356 292.163 35.7356 293.068 35.7356 293.077 35.74 293.086 35.74 293.094L35.7356 293.094 35.7356 304.133C35.7356 304.636 35.9325 305.091 36.2519 305.427 36.2606 305.441 36.2738 305.449 36.2869 305.458L45.7505 314.922C54.6776 314.184 62.0188 307.868 64.2778 299.463L48.8375 284.023 48.8356 284.023Z" fill="#000000" fill-rule="nonzero" fill-opacity="0.1"/><path d="M35.7355 293.094 35.7355 304.132C35.7355 305.139 36.5224 305.955 37.5137 306.019L37.5137 293.094 35.7355 293.094Z" fill="#3A556A" fill-rule="nonzero" fill-opacity="1"/><path d="M50.3649 293.094 50.3649 306.031C51.414 306.031 52.2645 305.181 52.2645 304.132L52.2645 293.094 50.3649 293.094Z" fill="#3A556A" fill-rule="nonzero" fill-opacity="1"/><path d="M37.5138 293.094 37.5138 306.019C37.5548 306.022 37.5937 306.031 37.6353 306.031L50.3649 306.031 50.3649 293.094 37.5138 293.094Z" fill="#64798A" fill-rule="nonzero" fill-opacity="1"/><path d="M37.5138 296.118 37.5138 294.992C36.5224 294.928 35.7355 294.112 35.7355 293.105L35.7355 294.231C35.7355 295.239 36.5224 296.055 37.5138 296.118Z" fill="#F6C358" fill-rule="nonzero" fill-opacity="1"/><path d="M50.3649 295.004 50.3649 296.131C51.414 296.131 52.2645 295.28 52.2645 294.231L52.2645 293.105C52.2645 294.154 51.414 295.004 50.3649 295.004Z" fill="#F6C358" fill-rule="nonzero" fill-opacity="1"/><path d="M37.5138 294.992 37.5138 296.118C37.5548 296.121 37.5937 296.131 37.6353 296.131L50.3649 296.131 50.3649 295.004 37.6353 295.004C37.5936 295.004 37.5548 294.995 37.5138 294.992Z" fill="#FCD462" fill-rule="nonzero" fill-opacity="1"/><path d="M37.5138 306.019 37.5138 304.893C36.5224 304.829 35.7355 304.013 35.7355 303.005L35.7355 304.132C35.7355 305.139 36.5224 305.955 37.5138 306.019Z" fill="#F6C358" fill-rule="nonzero" fill-opacity="1"/><path d="M50.3649 304.905 50.3649 306.031C51.414 306.031 52.2645 305.181 52.2645 304.132L52.2645 303.005C52.2645 304.054 51.414 304.905 50.3649 304.905Z" fill="#F6C358" fill-rule="nonzero" fill-opacity="1"/><path d="M37.5138 304.893 37.5138 306.019C37.5548 306.022 37.5937 306.031 37.6353 306.031L50.3649 306.031 50.3649 304.905 37.6353 304.905C37.5936 304.905 37.5548 304.895 37.5138 304.893Z" fill="#FCD462" fill-rule="nonzero" fill-opacity="1"/><path d="M50.3383 294.994 37.6617 294.994C36.5979 294.994 35.7355 294.131 35.7355 293.067 35.7355 292.004 36.5979 291.141 37.6617 291.141L50.3383 291.141C51.4021 291.141 52.2645 292.004 52.2645 293.067 52.2645 294.131 51.4021 294.994 50.3383 294.994Z" fill="#2F4859" fill-rule="nonzero" fill-opacity="1"/><path d="M45.2568 299.156C45.2568 298.429 44.667 297.839 43.9393 297.839 43.2116 297.839 42.6218 298.429 42.6218 299.156 42.6218 299.571 42.8175 299.937 43.1176 300.179L42.6218 302.492 45.2568 302.492 44.761 300.179C45.061 299.937 45.2568 299.572 45.2568 299.156Z" fill="#3A556A" fill-rule="nonzero" fill-opacity="1"/><path d="M44 281.969C40.2537 281.969 37.2055 285.055 37.2055 288.848L37.2055 293.192 38.7285 293.192 38.7285 288.848C38.7285 285.894 41.0931 283.492 44 283.492 46.9069 283.492 49.2715 285.894 49.2715 288.848L50.7945 288.848C50.7946 285.055 47.7464 281.969 44 281.969Z" fill="#EBF0F3" fill-rule="nonzero" fill-opacity="1"/></g></g></g></g></g></svg>