<svg width="43" height="43" xmlns="http://www.w3.org/2000/svg" xmlns:xlink="http://www.w3.org/1999/xlink" xml:space="preserve" overflow="hidden"><g transform="translate(-22 -325)"><g><g><g><g><path d="M65 347C65 358.598 55.598 368 44 368 32.402 368 23 358.598 23 347 23 335.402 32.402 326 44 326 55.598 326 65 335.402 65 347Z" fill="#45B39C" fill-rule="nonzero" fill-opacity="1"/><path d="M64.9776 347.886 55.8552 338.764 55.8551 338.764C55.7438 338.649 55.5893 338.577 55.4188 338.577L54.4431 338.577 50.8337 334.968 37.1618 334.968 37.1618 338.577 32.5812 338.577C32.2444 338.577 31.9688 338.857 31.9688 339.198L31.9688 355.578C31.9688 355.754 32.043 355.912 32.1605 356.024L32.1596 356.025 44.1316 367.997C55.3718 367.927 64.5143 359.029 64.9776 347.886Z" fill="#000000" fill-rule="nonzero" fill-opacity="0.1"/><path d="M48.2824 356.196 39.7175 356.196 37.7584 359.031 50.2415 359.031Z" fill="#3A556A" fill-rule="nonzero" fill-opacity="1"/><path d="M45.1449 354.328C45.1449 354.967 44.6323 355.485 44 355.485 43.3677 355.485 42.8551 354.967 42.8551 354.328 42.8551 353.689 43.3677 353.171 44 353.171 44.6323 353.171 45.1449 353.689 45.1449 354.328Z" fill="#3A556A" fill-rule="nonzero" fill-opacity="1"/><path d="M55.42 338.579 51.7491 338.579 51.6761 339.696 54.2876 339.696C54.5917 339.696 54.8382 339.945 54.8382 340.252L54.8382 352.533 50.8359 352.533 37.1641 352.533 33.1617 352.533 33.1617 340.252C33.1617 339.945 33.4082 339.696 33.7123 339.696L36.3239 339.696 36.2509 338.579 32.58 338.579C32.2424 338.579 31.9688 338.855 31.9688 339.197L31.9688 352.975 31.9688 355.578C31.9688 355.919 32.2424 356.196 32.58 356.196L55.4201 356.196C55.7576 356.196 56.0313 355.919 56.0313 355.578L56.0313 352.975 56.0313 339.197C56.0312 338.855 55.7576 338.579 55.42 338.579Z" fill="#64798A" fill-rule="nonzero" fill-opacity="1"/><path d="M33.7123 339.695C33.4083 339.695 33.1617 339.945 33.1617 340.252L33.1617 352.533 37.1641 352.533 36.3238 339.695 33.7123 339.695Z" fill="#EBF0F3" fill-rule="nonzero" fill-opacity="1"/><path d="M54.8383 352.533 54.8383 340.252C54.8383 339.945 54.5918 339.695 54.2877 339.695L51.6762 339.695 50.836 352.533 54.8383 352.533Z" fill="#EBF0F3" fill-rule="nonzero" fill-opacity="1"/><path d="M51.6761 339.695 51.7491 338.579 36.2508 338.579 36.3238 339.695Z" fill="#3A556A" fill-rule="nonzero" fill-opacity="1"/><path d="M37.1641 352.533 50.8359 352.533 51.6761 339.695 36.3238 339.695Z" fill="#E1E6E9" fill-rule="nonzero" fill-opacity="1"/><path d="M37.1641 334.969 50.8359 334.969 50.8359 352.534 37.1641 352.534Z" fill="#FFFFFF" fill-rule="nonzero" fill-opacity="1"/><path d="M38.0386 336.877 49.9605 336.877 49.9605 340.955 38.0386 340.955Z" fill="#EBF0F3" fill-rule="nonzero" fill-opacity="1"/><path d="M37.1641 334.969 50.8359 334.969 50.8359 336.001 37.1641 336.001Z" fill="#FCD462" fill-rule="nonzero" fill-opacity="1"/><path d="M45.4216 338.325 44.5905 338.325 44.5905 337.494 43.4095 337.494 43.4095 338.325 42.5783 338.325 42.5783 339.506 43.4095 339.506 43.4095 340.337 44.5905 340.337 44.5905 339.506 45.4216 339.506Z" fill="#E56353" fill-rule="nonzero" fill-opacity="1"/><path d="M38.0368 342.301 49.9587 342.301 49.9587 342.739 38.0368 342.739Z" fill="#EBF0F3" fill-rule="nonzero" fill-opacity="1"/><path d="M38.0368 343.864 49.9587 343.864 49.9587 344.302 38.0368 344.302Z" fill="#EBF0F3" fill-rule="nonzero" fill-opacity="1"/><path d="M38.0368 345.429 49.9587 345.429 49.9587 345.867 38.0368 345.867Z" fill="#EBF0F3" fill-rule="nonzero" fill-opacity="1"/><path d="M38.0368 346.993 43.9978 346.993 43.9978 347.43 38.0368 347.43Z" fill="#EBF0F3" fill-rule="nonzero" fill-opacity="1"/><path d="M46.149 348.514 49.9609 348.514 49.9609 348.951 46.149 348.951Z" fill="#2D93BA" fill-rule="nonzero" fill-opacity="1"/><path d="M48.0556 349.947 49.9614 349.947 49.9614 350.384 48.0556 350.384Z" fill="#64798A" fill-rule="nonzero" fill-opacity="1"/></g></g></g></g></g></svg>